<svg width="28" height="26" viewBox="0 0 28 26" fill="none" xmlns="http://www.w3.org/2000/svg">
<g id="Group">
<g id="Group_2">
<path id="Vector" d="M3.48308 25.3319C3.48308 25.7056 3.78533 26.0079 4.15901 26.0079C4.5327 26.0079 4.83494 25.7056 4.83494 25.3319V8.75794C6.72534 8.43372 8.17612 6.7906 8.17612 4.80678C8.17612 2.59215 6.37364 0.795166 4.16451 0.795166C1.95537 0.795166 0.152893 2.59215 0.152893 4.80678C0.152893 6.7906 1.59817 8.43372 3.49407 8.75794V25.3319H3.48308ZM1.48827 4.80678C1.48827 3.33952 2.68625 2.14153 4.15352 2.14153C5.62078 2.14153 6.81877 3.33952 6.81877 4.80678C6.81877 6.27404 5.62078 7.47203 4.15352 7.47203C2.68625 7.47203 1.48827 6.27954 1.48827 4.80678Z" fill="black"/>
<path id="Vector_2" d="M17.5787 21.9963C17.5787 20.0124 16.1334 18.3693 14.2375 18.0451V1.4711C14.2375 1.09741 13.9353 0.795166 13.5616 0.795166C13.1879 0.795166 12.8857 1.09741 12.8857 1.4711V18.0451C10.9953 18.3693 9.54449 20.0124 9.54449 21.9963C9.54449 24.2109 11.347 26.0079 13.5561 26.0079C15.7652 26.0079 17.5787 24.2054 17.5787 21.9963ZM10.9018 21.9963C10.9018 20.529 12.0998 19.331 13.5671 19.331C15.0344 19.331 16.2323 20.529 16.2323 21.9963C16.2323 23.4635 15.0344 24.6615 13.5671 24.6615C12.0998 24.6615 10.9018 23.4635 10.9018 21.9963Z" fill="black"/>
<path id="Vector_3" d="M23.0466 26.0079C23.4203 26.0079 23.7225 25.7056 23.7225 25.3319V8.75794C25.6129 8.43372 27.0637 6.7906 27.0637 4.80678C27.0637 2.59215 25.2612 0.795166 23.0521 0.795166C20.8429 0.795166 19.0405 2.59215 19.0405 4.80678C19.0405 6.7906 20.4857 8.43372 22.3816 8.75794V25.3319C22.3707 25.7056 22.6729 26.0079 23.0466 26.0079ZM20.3813 4.80678C20.3813 3.33952 21.5793 2.14153 23.0466 2.14153C24.5138 2.14153 25.7118 3.33952 25.7118 4.80678C25.7118 6.27404 24.5138 7.47203 23.0466 7.47203C21.5738 7.47203 20.3813 6.27954 20.3813 4.80678Z" fill="black"/>
</g>
</g>
</svg>
